<?xml version="1.0" standalone="no"?>
<!DOCTYPE svg PUBLIC "-//W3C//DTD SVG 20010904//EN"
 "http://www.w3.org/TR/2001/REC-SVG-20010904/DTD/svg10.dtd">
<svg version="1.0" xmlns="http://www.w3.org/2000/svg"
 width="260.000000pt" height="260.000000pt" viewBox="0 0 260.000000 260.000000"
 preserveAspectRatio="xMidYMid meet">
<metadata>
Created by potrace 1.11, written by Peter Selinger 2001-2013
</metadata>
<g transform="translate(0.000000,260.000000) scale(0.100000,-0.100000)"
fill="#000000" stroke="none">
<path d="M0 1300 l0 -1300 1300 0 1300 0 0 1300 0 1300 -1300 0 -1300 0 0
-1300z m1535 972 c226 -63 369 -195 421 -387 18 -67 18 -197 -1 -270 -18 -69
-69 -177 -96 -201 -27 -24 -24 -31 20 -54 82 -41 172 -152 205 -250 93 -278
-15 -574 -251 -694 -183 -92 -210 -95 -838 -93 l-520 2 0 94 0 93 123 45 122
45 0 704 c0 698 0 703 -20 714 -12 6 -65 27 -118 46 -53 20 -100 41 -104 47
-10 15 -10 171 -1 181 4 4 226 6 493 4 464 -4 488 -5 565 -26z"/>
<path d="M1080 1735 l0 -278 158 6 c106 4 171 11 202 22 120 43 170 114 178
250 4 73 1 85 -25 135 -49 93 -135 124 -375 136 l-138 6 0 -277z"/>
<path d="M1080 906 l0 -296 188 0 c205 0 300 15 385 62 87 48 124 152 105 294
-14 104 -52 154 -153 201 -59 28 -62 28 -292 31 l-233 4 0 -296z"/>
</g>
</svg>
